<svg width="304" height="129" viewBox="0 0 304 129" fill="none" xmlns="http://www.w3.org/2000/svg">
<path d="M27.8203 76.8145V83.1746H19.1855V109.404H11.247V83.1746H2.61221V76.8145H27.8203ZM30.2259 96.4053C30.2259 93.7437 30.7211 91.407 31.7115 89.3953C32.7328 87.3836 34.1101 85.8362 35.8432 84.753C37.5764 83.6698 39.5107 83.1281 41.6462 83.1281C43.4722 83.1281 45.066 83.4995 46.4278 84.2423C47.8205 84.9851 48.8882 85.96 49.631 87.167V83.4995H57.5695V109.404H49.631V105.736C48.8573 106.943 47.7741 107.918 46.3814 108.661C45.0196 109.404 43.4257 109.775 41.5997 109.775C39.4952 109.775 37.5764 109.234 35.8432 108.15C34.1101 107.036 32.7328 105.473 31.7115 103.462C30.7211 101.419 30.2259 99.0669 30.2259 96.4053ZM49.631 96.4517C49.631 94.471 49.0739 92.9081 47.9598 91.7629C46.8766 90.6178 45.5457 90.0453 43.9673 90.0453C42.3889 90.0453 41.0427 90.6178 39.9285 91.7629C38.8453 92.8771 38.3037 94.4246 38.3037 96.4053C38.3037 98.3861 38.8453 99.9645 39.9285 101.141C41.0427 102.286 42.3889 102.858 43.9673 102.858C45.5457 102.858 46.8766 102.286 47.9598 101.141C49.0739 99.9954 49.631 98.4325 49.631 96.4517ZM79.2359 83.221C82.207 83.221 84.5901 84.2114 86.3851 86.1921C88.1802 88.1419 89.0777 90.8345 89.0777 94.2698V109.404H81.1857V95.3376C81.1857 93.6044 80.7369 92.2581 79.8394 91.2987C78.9419 90.3393 77.7349 89.8596 76.2184 89.8596C74.7018 89.8596 73.4948 90.3393 72.5973 91.2987C71.6998 92.2581 71.251 93.6044 71.251 95.3376V109.404H63.3126V75.0504H71.251V86.9813C72.0557 85.8362 73.1544 84.9232 74.5471 84.2423C75.9398 83.5614 77.5027 83.221 79.2359 83.221ZM105.132 109.775C102.873 109.775 100.861 109.388 99.0972 108.615C97.3331 107.841 95.9404 106.789 94.9191 105.458C93.8978 104.096 93.3252 102.58 93.2014 100.908H101.047C101.14 101.806 101.558 102.533 102.3 103.09C103.043 103.647 103.956 103.926 105.039 103.926C106.03 103.926 106.788 103.74 107.314 103.369C107.871 102.967 108.15 102.456 108.15 101.837C108.15 101.094 107.763 100.552 106.989 100.212C106.216 99.8407 104.962 99.4383 103.229 99.005C101.372 98.5717 99.8245 98.123 98.5866 97.6587C97.3486 97.1636 96.2809 96.4053 95.3833 95.384C94.4858 94.3317 94.0371 92.9235 94.0371 91.1594C94.0371 89.6739 94.4394 88.3276 95.2441 87.1206C96.0797 85.8826 97.2867 84.9077 98.8651 84.1959C100.474 83.4841 102.378 83.1281 104.575 83.1281C107.825 83.1281 110.378 83.9328 112.235 85.5422C114.123 87.1515 115.206 89.287 115.485 91.9486H108.15C108.026 91.0511 107.624 90.3393 106.943 89.8132C106.293 89.287 105.426 89.024 104.343 89.024C103.415 89.024 102.703 89.2096 102.208 89.581C101.712 89.9215 101.465 90.4012 101.465 91.0202C101.465 91.7629 101.852 92.32 102.625 92.6914C103.43 93.0628 104.668 93.4342 106.339 93.8056C108.258 94.3008 109.821 94.796 111.028 95.2911C112.235 95.7554 113.287 96.5291 114.185 97.6123C115.113 98.6646 115.593 100.088 115.624 101.883C115.624 103.4 115.191 104.762 114.324 105.969C113.489 107.145 112.266 108.073 110.657 108.754C109.078 109.435 107.237 109.775 105.132 109.775ZM144.9 96.0339C144.9 96.7767 144.853 97.5504 144.76 98.3551H126.794C126.918 99.9645 127.429 101.202 128.326 102.069C129.255 102.905 130.384 103.322 131.715 103.322C133.696 103.322 135.073 102.487 135.847 100.816H144.296C143.863 102.518 143.074 104.05 141.928 105.411C140.814 106.773 139.406 107.841 137.704 108.615C136.002 109.388 134.098 109.775 131.994 109.775C129.456 109.775 127.197 109.234 125.216 108.15C123.235 107.067 121.688 105.52 120.574 103.508C119.459 101.496 118.902 99.1443 118.902 96.4517C118.902 93.7592 119.444 91.407 120.527 89.3953C121.641 87.3836 123.189 85.8362 125.17 84.753C127.15 83.6698 129.425 83.1281 131.994 83.1281C134.501 83.1281 136.729 83.6543 138.679 84.7066C140.629 85.7588 142.145 87.2599 143.228 89.2096C144.343 91.1594 144.9 93.4342 144.9 96.0339ZM136.775 93.9449C136.775 92.5831 136.311 91.4999 135.383 90.6952C134.454 89.8905 133.294 89.4882 131.901 89.4882C130.57 89.4882 129.441 89.875 128.512 90.6488C127.615 91.4225 127.057 92.5212 126.841 93.9449H136.775ZM173.506 96.0339C173.506 96.7767 173.46 97.5504 173.367 98.3551H155.401C155.525 99.9645 156.036 101.202 156.933 102.069C157.862 102.905 158.991 103.322 160.322 103.322C162.303 103.322 163.68 102.487 164.454 100.816H172.903C172.47 102.518 171.68 104.05 170.535 105.411C169.421 106.773 168.013 107.841 166.311 108.615C164.608 109.388 162.705 109.775 160.601 109.775C158.063 109.775 155.803 109.234 153.823 108.15C151.842 107.067 150.295 105.52 149.18 103.508C148.066 101.496 147.509 99.1443 147.509 96.4517C147.509 93.7592 148.051 91.407 149.134 89.3953C150.248 87.3836 151.796 85.8362 153.776 84.753C155.757 83.6698 158.032 83.1281 160.601 83.1281C163.107 83.1281 165.336 83.6543 167.286 84.7066C169.235 85.7588 170.752 87.2599 171.835 89.2096C172.949 91.1594 173.506 93.4342 173.506 96.0339ZM165.382 93.9449C165.382 92.5831 164.918 91.4999 163.99 90.6952C163.061 89.8905 161.9 89.4882 160.508 89.4882C159.177 89.4882 158.047 89.875 157.119 90.6488C156.221 91.4225 155.664 92.5212 155.448 93.9449H165.382ZM185.633 75.0504V109.404H177.694V75.0504H185.633Z" fill="white"/>
<path d="M1.28489 52.6163C1.28489 51.8585 1.35078 50.969 1.48256 49.9477C1.61434 48.9263 1.86144 47.7732 2.22384 46.4884C2.58625 45.1705 3.12985 43.7044 3.85466 42.0901L9.93316 44.2151C9.57076 45.2364 9.25777 46.1754 8.99421 47.032C8.73064 47.8556 8.53297 48.6298 8.40118 49.3546C8.2694 50.0465 8.20351 50.7384 8.20351 51.4302C8.20351 52.9128 8.56591 54.1977 9.29072 55.2849C10.0485 56.405 11.0698 57.2616 12.3547 57.8547C13.6725 58.4806 15.188 58.7936 16.9012 58.7936C19.7016 58.7936 21.8431 58.3324 23.3256 57.4099C24.8411 56.5204 25.8625 55.1037 26.3896 53.1599C26.9497 51.1831 27.1638 48.6298 27.032 45.5L26.0437 17.8255H33.0117L33.753 41.2006C33.8189 42.8478 34.0495 44.1163 34.4448 45.0058C34.8402 45.8953 35.4497 46.5048 36.2733 46.8343C37.1299 47.1637 38.2336 47.3285 39.5844 47.3285C40.8363 47.3285 41.7259 47.6579 42.253 48.3168C42.7801 48.9428 43.0437 49.7335 43.0437 50.6889C43.0437 51.7103 42.6978 52.5669 42.0059 53.2587C41.314 53.9176 40.3421 54.2471 39.0902 54.2471C38.3654 54.2471 37.5912 54.1483 36.7675 53.9506C35.9439 53.7529 35.1532 53.4399 34.3954 53.0116C33.6377 52.5833 32.9788 52.0233 32.4187 51.3314C31.8586 50.6066 31.4797 49.717 31.282 48.6628L33.9507 47.3285C33.9507 50.656 33.5553 53.4729 32.7646 55.7791C32.0069 58.0853 30.8867 59.9467 29.4041 61.3634C27.9545 62.7801 26.159 63.8014 24.0175 64.4273C21.909 65.0863 19.471 65.4157 16.7035 65.4157C14.595 65.4157 12.6018 65.1522 10.7239 64.625C8.8789 64.0979 7.24808 63.3072 5.83141 62.2529C4.41474 61.1987 3.29458 59.8644 2.47094 58.25C1.68024 56.6686 1.28489 54.7907 1.28489 52.6163ZM39.091 54.2471L39.5852 47.3285H53.8178C55.0697 47.3285 55.9592 47.6579 56.4864 48.3168C57.0464 48.9428 57.3265 49.7335 57.3265 50.6889C57.3265 51.7103 56.9806 52.5669 56.2887 53.2587C55.5968 53.9176 54.6085 54.2471 53.3236 54.2471H39.091ZM53.3761 54.2471L53.8703 47.3285H68.1029C69.3548 47.3285 70.2443 47.6579 70.7715 48.3168C71.3315 48.9428 71.6116 49.7335 71.6116 50.6889C71.6116 51.7103 71.2657 52.5669 70.5738 53.2587C69.8819 53.9176 68.8936 54.2471 67.6087 54.2471H53.3761ZM67.6612 54.2471L68.1554 47.3285C69.3414 47.3285 70.3627 47.2132 71.2193 46.9825C72.0759 46.7519 72.8007 46.2907 73.3937 45.5988C73.9868 44.874 74.481 43.8197 74.8763 42.436C75.3046 41.0523 75.6835 39.2073 76.0129 36.9011L82.4868 37.9883C82.4209 38.4825 82.3221 39.0591 82.1903 39.718C82.0914 40.3769 81.9926 41.0523 81.8938 41.7442C81.8279 42.4031 81.7949 43.029 81.7949 43.6221C81.7949 44.2151 81.9102 44.7422 82.1409 45.2035C82.3715 45.6647 82.7339 46.0601 83.2281 46.3895C83.7552 46.686 84.4306 46.9167 85.2542 47.0814C86.1108 47.2461 87.1486 47.3285 88.3676 47.3285C89.6196 47.3285 90.5091 47.6579 91.0362 48.3168C91.5634 48.9428 91.8269 49.7335 91.8269 50.6889C91.8269 51.7103 91.481 52.5669 90.7891 53.2587C90.1302 53.9176 89.1583 54.2471 87.8734 54.2471C86.3909 54.2471 85.0401 54.1318 83.8211 53.9012C82.635 53.6705 81.5972 53.2917 80.7077 52.7645C79.8511 52.2045 79.1428 51.4796 78.5827 50.5901C78.0556 49.6676 77.7261 48.5475 77.5943 47.2296H79.9664C79.3734 48.811 78.6157 50.0794 77.6932 51.0349C76.8036 51.9574 75.7988 52.6492 74.6786 53.1105C73.5585 53.5717 72.3889 53.8682 71.1699 54C69.9839 54.1647 68.8143 54.2471 67.6612 54.2471ZM81.449 65.7122C80.4936 65.7122 79.6699 65.3663 78.9781 64.6744C78.3191 64.0155 77.9897 63.2248 77.9897 62.3023C77.9897 61.3469 78.3191 60.5233 78.9781 59.8314C79.6699 59.1395 80.4936 58.7936 81.449 58.7936C82.3715 58.7936 83.1622 59.1395 83.8211 59.8314C84.48 60.5233 84.8095 61.3469 84.8095 62.3023C84.8095 63.2248 84.48 64.0155 83.8211 64.6744C83.1622 65.3663 82.3715 65.7122 81.449 65.7122ZM72.8996 65.7122C71.9441 65.7122 71.1205 65.3663 70.4286 64.6744C69.7697 64.0155 69.4402 63.2248 69.4402 62.3023C69.4402 61.3469 69.7697 60.5233 70.4286 59.8314C71.1205 59.1395 71.9441 58.7936 72.8996 58.7936C73.822 58.7936 74.6127 59.1395 75.2717 59.8314C75.9306 60.5233 76.26 61.3469 76.26 62.3023C76.26 63.2248 75.9306 64.0155 75.2717 64.6744C74.6127 65.3663 73.822 65.7122 72.8996 65.7122ZM137.449 54.2471C135.769 54.2471 134.155 54.0988 132.606 53.8023C131.058 53.4729 129.658 53.0446 128.406 52.5174C127.187 51.9903 126.182 51.3973 125.391 50.7384L129.839 45.9447C131.025 46.4389 132.244 46.8013 133.496 47.032C134.748 47.2296 136.23 47.3285 137.943 47.3285C139.195 47.3285 140.085 47.6579 140.612 48.3168C141.172 48.9428 141.452 49.7335 141.452 50.6889C141.452 51.7103 141.106 52.5669 140.414 53.2587C139.723 53.9176 138.734 54.2471 137.449 54.2471ZM113.481 54.8895C110.417 54.8895 107.864 54.7578 105.821 54.4942C103.812 54.2306 102.181 53.8517 100.929 53.3576C99.6769 52.8634 98.6885 52.2703 97.9637 51.5785C97.2389 50.8866 96.6459 50.1289 96.1847 49.3052L97.5684 48.9099C96.7447 50.4913 95.8058 51.6608 94.7515 52.4186C93.6972 53.1764 92.5936 53.6705 91.4405 53.9012C90.2874 54.1318 89.1013 54.2471 87.8823 54.2471L88.3765 47.3285C89.3978 47.3285 90.205 47.1637 90.798 46.8343C91.391 46.5048 91.8688 45.9612 92.2312 45.2035C92.6265 44.4457 92.9889 43.4409 93.3184 42.1889C93.6478 40.937 94.0432 39.405 94.5044 37.593L100.781 39.125C100.55 40.0145 100.352 40.7887 100.188 41.4476C100.056 42.1066 99.9405 42.6831 99.8416 43.1773C99.7757 43.6385 99.7428 44.0174 99.7428 44.3139C99.7428 44.9399 99.8911 45.5 100.188 45.9942C100.484 46.4554 101.061 46.8343 101.917 47.1308C102.774 47.3944 104.026 47.6085 105.673 47.7732C107.353 47.905 109.544 47.9709 112.246 47.9709C115.112 47.9709 117.501 47.8721 119.411 47.6744C121.322 47.4438 122.838 47.1308 123.958 46.7354C125.111 46.3072 125.935 45.7965 126.429 45.2035C126.923 44.5775 127.17 43.8692 127.17 43.0785C127.17 42.4525 127.022 41.8759 126.725 41.3488C126.462 40.7887 126.017 40.3275 125.391 39.9651C124.765 39.6027 123.958 39.4215 122.97 39.4215C121.784 39.4215 120.581 39.718 119.362 40.311C118.176 40.8711 117.006 41.6288 115.853 42.5843C114.7 43.5068 113.597 44.5446 112.542 45.6977C111.521 46.8508 110.598 48.0039 109.775 49.157L102.362 48.3168C103.647 46.2413 105.096 44.248 106.711 42.3372C108.325 40.4263 110.055 38.7461 111.9 37.2965C113.745 35.8139 115.656 34.6443 117.632 33.7877C119.609 32.9312 121.619 32.5029 123.661 32.5029C125.869 32.5029 127.747 32.9312 129.295 33.7877C130.844 34.6443 132.03 35.8304 132.853 37.3459C133.677 38.8614 134.089 40.6075 134.089 42.5843C134.089 44.9893 133.397 47.1143 132.013 48.9593C130.662 50.8043 128.472 52.2539 125.441 53.3081C122.442 54.3624 118.456 54.8895 113.481 54.8895ZM169.814 54.2471C168.298 54.2471 166.882 54.1318 165.564 53.9012C164.279 53.6705 163.093 53.2752 162.006 52.7151C160.919 52.1221 159.947 51.3149 159.09 50.2936C158.266 49.2723 157.575 47.9874 157.014 46.4389L160.919 43.3256C161.512 44.3798 162.236 45.2035 163.093 45.7965C163.95 46.3566 164.971 46.7519 166.157 46.9825C167.343 47.2132 168.727 47.3285 170.308 47.3285C171.56 47.3285 172.45 47.6579 172.977 48.3168C173.504 48.9428 173.767 49.7335 173.767 50.6889C173.767 51.7103 173.421 52.5669 172.73 53.2587C172.071 53.9176 171.099 54.2471 169.814 54.2471ZM137.494 54.2471L137.988 47.3285C139.767 47.3285 141.53 47.2296 143.276 47.032C145.022 46.8343 146.719 46.5378 148.366 46.1424C150.013 45.7471 151.578 45.2364 153.061 44.6104C154.576 43.9845 155.993 43.2267 157.311 42.3372C156.323 41.7442 155.252 41.2335 154.099 40.8052C152.946 40.3769 151.71 40.0639 150.392 39.8662C149.107 39.6356 147.74 39.5203 146.291 39.5203C145.763 39.5203 145.203 39.5368 144.61 39.5697C144.05 39.6027 143.474 39.6686 142.881 39.7674C142.288 39.8333 141.695 39.9321 141.102 40.0639L140.113 33.2936C141.069 33.03 142.074 32.8488 143.128 32.75C144.215 32.6182 145.17 32.5523 145.994 32.5523C147.773 32.5523 149.404 32.75 150.887 33.1453C152.402 33.5407 153.786 34.0348 155.038 34.6279C156.323 35.2209 157.509 35.8139 158.596 36.4069C159.716 37 160.77 37.4941 161.759 37.8895C162.78 38.2848 163.768 38.4825 164.724 38.4825H166.552L167.343 45.0552C165.926 45.1211 164.592 45.4011 163.34 45.8953C162.121 46.3566 160.902 46.9496 159.683 47.6744C158.497 48.3663 157.212 49.0911 155.828 49.8488C154.478 50.6066 152.946 51.3149 151.232 51.9738C149.519 52.6327 147.543 53.1764 145.302 53.6047C143.062 54.0329 140.459 54.2471 137.494 54.2471ZM169.829 54.2471L170.323 47.3285C172.3 47.3285 173.815 47.2296 174.869 47.032C175.924 46.8343 176.648 46.4719 177.044 45.9447C177.472 45.3847 177.686 44.594 177.686 43.5727C177.686 42.6502 177.554 41.5465 177.291 40.2616C177.06 38.9767 176.747 37.6424 176.352 36.2587C175.989 34.875 175.594 33.6065 175.166 32.4534L181.986 30.5755C182.414 31.6957 182.826 32.997 183.221 34.4796C183.616 35.9622 183.946 37.4941 184.209 39.0755C184.473 40.624 184.605 42.123 184.605 43.5727C184.605 45.813 184.242 47.6415 183.518 49.0581C182.793 50.4419 181.771 51.5126 180.454 52.2703C179.169 53.0281 177.62 53.5552 175.808 53.8517C173.996 54.1153 172.003 54.2471 169.829 54.2471ZM183.221 26.5726C182.266 26.5726 181.442 26.2432 180.75 25.5842C180.091 24.8924 179.762 24.0852 179.762 23.1627C179.762 22.2073 180.091 21.3836 180.75 20.6918C181.442 19.9999 182.266 19.654 183.221 19.654C184.144 19.654 184.934 19.9999 185.593 20.6918C186.252 21.3836 186.582 22.2073 186.582 23.1627C186.582 24.0852 186.252 24.8924 185.593 25.5842C184.934 26.2432 184.144 26.5726 183.221 26.5726ZM174.672 26.5232C173.716 26.5232 172.893 26.1937 172.201 25.5348C171.542 24.843 171.212 24.0358 171.212 23.1133C171.212 22.1579 171.542 21.3342 172.201 20.6424C172.893 19.9505 173.716 19.6046 174.672 19.6046C175.594 19.6046 176.385 19.9505 177.044 20.6424C177.703 21.3342 178.032 22.1579 178.032 23.1133C178.032 24.0358 177.703 24.843 177.044 25.5348C176.385 26.1937 175.594 26.5232 174.672 26.5232Z" fill="white"/>
<rect x="206.66" y="118.305" width="97.3399" height="97.3399" rx="27.5796" transform="rotate(-90 206.66 118.305)" fill="#FB7D5B"/>
<path fill-rule="evenodd" clip-rule="evenodd" d="M220.137 68.0571C220.137 48.6656 235.699 32.9458 254.895 32.9458C274.092 32.9458 289.654 48.6656 289.654 68.0571V68.0571C289.654 70.4219 287.737 72.3389 285.372 72.3389L276.98 72.3389C274.616 72.3389 272.699 70.4219 272.699 68.0571V68.0571C272.699 58.1249 264.728 50.0732 254.895 50.0732C245.063 50.0732 237.092 58.1249 237.092 68.0571V68.0571C237.092 70.4219 235.175 72.3389 232.81 72.3389L224.419 72.3389C222.054 72.3389 220.137 70.4219 220.137 68.0571V68.0571Z" fill="#4D44B5"/>
<path fill-rule="evenodd" clip-rule="evenodd" d="M277.002 95.8422C274.442 95.8422 272.367 93.7673 272.367 91.2077L272.367 83.0974C272.367 80.5378 274.442 78.4629 277.002 78.4629L285.112 78.4629C287.672 78.4629 289.747 80.5378 289.747 83.0974L289.747 91.2077C289.747 93.7673 287.672 95.8422 285.112 95.8422L277.002 95.8422Z" fill="#FCC43E"/>
<path fill-rule="evenodd" clip-rule="evenodd" d="M220.469 83.0975C220.469 80.5379 222.544 78.463 225.104 78.463L257.545 78.463C260.105 78.463 262.18 80.5379 262.18 83.0975L262.18 91.2078C262.18 93.7674 260.105 95.8423 257.545 95.8423L225.104 95.8423C222.544 95.8423 220.469 93.7674 220.469 91.2078L220.469 83.0975Z" fill="white"/>
</svg>
